<?xml version="1.0" encoding="UTF-8"?>
<!-- Generator: visioncortex VTracer 0.6.2 -->
<svg version="1.1" xmlns="http://www.w3.org/2000/svg" width="1280" height="720">
<path d="M0 0 C422.4 0 844.8 0 1280 0 C1280 237.6 1280 475.2 1280 720 C857.6 720 435.2 720 0 720 C0 482.4 0 244.8 0 0 Z " fill="#FAFCFC" transform="translate(0,0)"/>
<path d="M0 0 C18.2039964 14.59197814 30.17918881 35.38446777 33.85302734 58.48535156 C34.51379013 65.49634738 34.36152999 72.5453137 34.30712891 79.57910156 C34.30599803 81.65040057 34.30663897 83.72170118 34.30889893 85.79299927 C34.31003761 91.36639798 34.28666633 96.9394461 34.2586031 102.51276398 C34.23344731 108.35565878 34.23123633 114.19856331 34.22650146 120.04150391 C34.21411312 131.08374643 34.18134794 142.12582886 34.14110351 153.16800117 C34.08785614 168.10495215 34.06640684 183.0419475 34.04309464 197.97896957 C34.00558328 221.4812166 33.92586482 244.98312596 33.85302734 268.48535156 C-26.53697266 268.48535156 -86.92697266 268.48535156 -149.14697266 268.48535156 C-149.30818479 217.00942064 -149.30818479 217.00942064 -149.34228516 195.37792969 C-149.36598582 180.46356684 -149.39379279 165.54929464 -149.44873047 150.63500977 C-149.48872858 139.77124266 -149.51443631 128.90754935 -149.52332664 118.04371065 C-149.52851946 112.2968856 -149.54063525 106.55027158 -149.56989288 100.80351448 C-149.59726732 95.38215939 -149.60537357 89.96110003 -149.59940338 84.53968239 C-149.60049384 82.56174863 -149.60831527 80.58380382 -149.62379456 78.60593033 C-149.83232195 50.55918674 -141.50337055 26.29153416 -121.58447266 5.85644531 C-87.96003156 -26.15519556 -36.36056941 -27.94995695 0 0 Z " fill="#FBFDFD" transform="translate(149.14697265625,451.5146484375)"/>
<path d="M0 0 C18.2039964 14.59197814 30.17918881 35.38446777 33.85302734 58.48535156 C34.51379013 65.49634738 34.36152999 72.5453137 34.30712891 79.57910156 C34.30599803 81.65040057 34.30663897 83.72170118 34.30889893 85.79299927 C34.31003761 91.36639798 34.28666633 96.9394461 34.2586031 102.51276398 C34.23344731 108.35565878 34.23123633 114.19856331 34.22650146 120.04150391 C34.21411312 131.08374643 34.18134794 142.12582886 34.14110351 153.16800117 C34.09625636 165.74852134 34.07436631 178.32904951 34.05432177 190.90962982 C34.01261135 216.7682952 33.94152627 242.62680761 33.85302734 268.48535156 C28.57302734 268.48535156 23.29302734 268.48535156 17.85302734 268.48535156 C17.8471611 265.96071259 17.84129486 263.43607361 17.83525085 260.83493042 C17.77852401 237.02850201 17.70541361 213.22216389 17.61731243 189.41583061 C17.57241194 177.17713153 17.53298404 164.93846118 17.5065918 152.69970703 C17.48356517 142.02818785 17.45011511 131.35676001 17.40432578 120.68531334 C17.38045648 115.03870881 17.36168651 109.39219439 17.35541344 103.74554062 C17.34933408 98.42183962 17.3292318 93.09836902 17.29875183 87.77475357 C17.29001712 85.82945612 17.28623946 83.8841285 17.28801918 81.93881226 C17.30276226 58.37094406 12.16412516 36.56868973 -4.56884766 18.86816406 C-12.30006135 11.72264837 -21.25700338 6.11078505 -31.14697266 2.48535156 C-32.20658203 2.09347656 -33.26619141 1.70160156 -34.35791016 1.29785156 C-53.29182547 -4.72087648 -73.68114127 -2.8380164 -91.45947266 5.73535156 C-97.65050558 9.00885149 -102.95521394 12.80187691 -108.14697266 17.48535156 C-109.19111328 18.39027344 -109.19111328 18.39027344 -110.25634766 19.31347656 C-121.10359049 29.31984785 -128.86297611 44.86229113 -131.14697266 59.48535156 C-131.24895985 62.33852461 -131.3016967 65.16786963 -131.30519104 68.02107239 C-131.31012902 68.87880696 -131.31506699 69.73654152 -131.32015461 70.62026805 C-131.33550693 73.49301857 -131.34388411 76.36574678 -131.35229492 79.23852539 C-131.36187522 81.29835201 -131.3718854 83.35817667 -131.3822937 85.41799927 C-131.40933232 91.0104875 -131.43034757 96.60298415 -131.45029569 102.19550157 C-131.47216164 108.03982979 -131.49954736 113.88413205 -131.52635193 119.72843933 C-131.57627055 130.7957484 -131.62121248 141.86307188 -131.66437429 152.93040913 C-131.71375374 165.53006068 -131.76866926 178.12968618 -131.82405388 190.72931254 C-131.93786119 216.64796809 -132.04450661 242.56664891 -132.14697266 268.48535156 C-137.75697266 268.48535156 -143.36697266 268.48535156 -149.14697266 268.48535156 C-149.23975848 241.65915134 -149.31104818 214.83299008 -149.35422134 188.00666142 C-149.37480448 175.54938846 -149.40284358 163.09221734 -149.44873047 150.63500977 C-149.48872858 139.77124266 -149.51443631 128.90754935 -149.52332664 118.04371065 C-149.52851946 112.2968856 -149.54063525 106.55027158 -149.56989288 100.80351448 C-149.59726732 95.38215939 -149.60537357 89.96110003 -149.59940338 84.53968239 C-149.60049384 82.56174863 -149.60831527 80.58380382 -149.62379456 78.60593033 C-149.83232195 50.55918674 -141.50337055 26.29153416 -121.58447266 5.85644531 C-87.96003156 -26.15519556 -36.36056941 -27.94995695 0 0 Z " fill="#FBFDFD" transform="translate(149.14697265625,451.5146484375)"/>
<path d="M0 0 C5.09437568 3.51754511 8.26836043 7.07651507 10.625 12.8125 C10.8974166 15.67388669 11.01839924 18.30920633 10.98576355 21.1647644 C10.98832682 21.99068498 10.9908901 22.81660555 10.99353105 23.66755402 C10.99846078 26.42684456 10.98198949 29.18558433 10.96557617 31.94482422 C10.96472972 33.92597948 10.96520539 35.90713569 10.96690369 37.88829041 C10.96776437 43.26181321 10.9501266 48.63513509 10.92918181 54.0086112 C10.91042733 59.62602056 10.90866554 65.24343453 10.90510559 70.86087036 C10.89578153 81.49612994 10.8711628 92.13129701 10.84105712 102.76651585 C10.8075244 114.87523867 10.79102993 126.98396591 10.77597082 139.09272361 C10.7446136 163.99937885 10.68959694 188.90590726 10.625 213.8125 C-2.245 213.8125 -15.115 213.8125 -28.375 213.8125 C-28.46530578 187.87390056 -28.53898531 161.93542846 -28.58224869 135.99671173 C-28.60287085 123.95282868 -28.63098499 111.90905027 -28.67675781 99.86523438 C-28.71663598 89.36742187 -28.74243533 78.86968514 -28.75135398 68.37179899 C-28.75656702 62.81361224 -28.76881267 57.25564228 -28.79792023 51.69752502 C-28.82510462 46.46415278 -28.83343879 41.23108629 -28.82743073 35.99765015 C-28.8285296 34.07882525 -28.83646535 32.15998995 -28.8518219 30.2412262 C-28.87179724 27.61621454 -28.86691193 24.99234914 -28.85601807 22.36730957 C-28.86766943 21.61242264 -28.8793208 20.85753572 -28.89132524 20.07977343 C-28.8239708 14.05313983 -27.13748274 8.73752627 -22.92766023 4.27999926 C-16.02974555 -1.68424531 -8.6883995 -3.05702945 0 0 Z " fill="#FBFDFD" transform="translate(100.375,506.1875)"/>
<path d="M0 0 C10.13914073 5.61059171 16.76519875 13.66556773 20.33756697 24.65011585 C21.32039385 28.40862311 21.38179441 31.97851707 21.33732605 35.84474182 C21.33988932 36.67730922 21.3424526 37.50987662 21.34509355 38.36767334 C21.34999825 41.13146759 21.33359382 43.89470413 21.31713867 46.65844727 C21.31629168 48.64989713 21.31676895 50.64134792 21.31846619 52.63279724 C21.31932475 58.02060495 21.30172137 63.40821112 21.28074431 68.79597211 C21.26195442 74.43338317 21.26022525 80.07079915 21.25666809 85.70823669 C21.24735443 96.37527074 21.22274979 107.04221223 21.19261962 117.70920557 C21.15905452 129.85669128 21.14258429 142.00418148 21.12753332 154.15170205 C21.09619967 179.13243769 21.04284601 204.11308475 20.9765625 229.09375 C15.3665625 229.09375 9.7565625 229.09375 3.9765625 229.09375 C3.97109406 225.34318237 3.97109406 225.34318237 3.96551514 221.5168457 C3.92929512 197.97342394 3.87110741 174.4301298 3.79265976 150.8868103 C3.75285611 138.78244811 3.7204703 126.67815105 3.70556641 114.57373047 C3.69255682 104.02310632 3.66560973 93.47262542 3.62194943 82.92208195 C3.59931921 77.33600265 3.58365277 71.75010015 3.58467865 66.16397095 C3.58542432 60.90425043 3.5675103 55.64492094 3.53539467 50.38530159 C3.52688827 48.4568364 3.52515075 46.5283274 3.53075981 44.59985161 C3.53741008 41.96162047 3.51945501 39.32462975 3.49554443 36.68652344 C3.50330485 35.92774556 3.51106527 35.16896769 3.51906085 34.38719654 C3.43203783 28.9435707 2.07495776 24.61322597 -1.0234375 20.09375 C-6.61530679 15.64307853 -11.17929436 14.67608711 -18.1640625 14.75 C-22.65743128 15.29018641 -25.70020552 17.08403047 -29.0234375 20.09375 C-33.43766292 25.75301336 -34.17277628 30.06193134 -34.18165588 37.04728699 C-34.18659386 37.86656073 -34.19153184 38.68583448 -34.19661945 39.5299347 C-34.21201919 42.28452145 -34.22036178 45.03908483 -34.22875977 47.79370117 C-34.23833634 49.76456407 -34.24834629 51.73542491 -34.25875854 53.70628357 C-34.28583755 59.06542596 -34.3068309 64.42457719 -34.32676053 69.7837503 C-34.34860161 75.38118466 -34.37599948 80.9785917 -34.40281677 86.57600403 C-34.45276908 97.17942979 -34.49769849 107.78287071 -34.54083914 118.38632613 C-34.59018983 130.45631711 -34.64511599 142.52628069 -34.70051873 154.59624517 C-34.81437774 179.4287214 -34.92101047 204.26122421 -35.0234375 229.09375 C-40.6334375 229.09375 -46.2434375 229.09375 -52.0234375 229.09375 C-52.06977551 203.59812534 -52.10544731 178.10251086 -52.12706184 152.60685253 C-52.1373655 140.7682419 -52.15140844 128.92965796 -52.17431641 117.09106445 C-52.19427814 106.77011465 -52.20716056 96.44918418 -52.21161449 86.12821561 C-52.21421715 80.66557854 -52.2203156 75.20299675 -52.23489761 69.74037743 C-52.24852548 64.59323742 -52.25264964 59.4461752 -52.24965286 54.29901886 C-52.2502007 52.41533039 -52.254147 50.53163919 -52.26184845 48.64796638 C-52.32359721 32.75860378 -52.04456015 19.61819985 -40.7734375 7.28125 C-30.55157127 -2.37019958 -13.08543932 -5.45647663 0 0 Z " fill="#FBFDFD" transform="translate(107.0234375,490.90625)"/>
<path d="M0 0 C15.47177101 12.0407925 26.10787433 29.66050286 29.39897823 49.01803684 C29.90360771 53.20150071 29.99938117 57.24662157 29.98353577 61.45359802 C29.9848174 62.71213651 29.9848174 62.71213651 29.98612493 63.99610001 C29.98776553 66.79356465 29.9822817 69.59096866 29.97680664 72.38842773 C29.97652444 74.39928689 29.97668315 76.41014615 29.97724915 78.42100525 C29.97753582 83.8708392 29.97166 89.32065109 29.96467519 94.77047992 C29.95842011 100.46930501 29.95783614 106.16813062 29.95664978 111.86695862 C29.95354282 122.65443401 29.94533799 133.44189925 29.93530029 144.22937018 C29.92411944 156.51224787 29.91862373 168.79512606 29.91360486 181.07800758 C29.90315486 206.34107318 29.8855677 231.60412977 29.86328125 256.8671875 C26.23328125 256.8671875 22.60328125 256.8671875 18.86328125 256.8671875 C18.8608929 255.85118973 18.85850454 254.83519196 18.85604382 253.78840637 C18.79712851 229.01416896 18.72117173 204.24002787 18.62756634 179.46589661 C18.58268908 167.48508588 18.54325593 155.50430434 18.5168457 143.5234375 C18.49380014 133.07530086 18.46032926 122.62725723 18.41457969 112.17919445 C18.39073571 106.65213348 18.37194926 101.12516412 18.36566734 95.59805298 C18.35957637 90.38432796 18.33943321 85.17083707 18.30900574 79.9571991 C18.30028936 78.0546685 18.29648947 76.15210722 18.29827309 74.2495575 C18.31306868 51.16294587 14.97124096 32.44989497 -1.44921875 15.1171875 C-14.38269262 2.77860936 -30.64627806 -2.61043251 -48.41015625 -2.40625 C-66.35559172 -1.08949897 -82.21347198 6.21041903 -94.13671875 19.8671875 C-103.39576528 31.49877973 -108.27644565 44.41102467 -108.29493713 59.28901672 C-108.29987511 60.13450063 -108.30481309 60.97998454 -108.3099007 61.85108918 C-108.32525117 64.68238107 -108.3336297 67.51365033 -108.34204102 70.3449707 C-108.35162146 72.37524108 -108.36163164 74.40550946 -108.37203979 76.43577576 C-108.39907684 81.94768786 -108.42009294 87.45960852 -108.44004178 92.97155023 C-108.4619087 98.73179702 -108.48929395 104.49201749 -108.51609802 110.25224304 C-108.56601533 121.16018005 -108.61095775 132.06813168 -108.65412039 142.97609729 C-108.70350096 155.39437405 -108.75841606 167.8126244 -108.81379998 180.23087561 C-108.92760526 205.77628826 -109.03444749 231.32172625 -109.13671875 256.8671875 C-112.76671875 256.8671875 -116.39671875 256.8671875 -120.13671875 256.8671875 C-120.25376686 229.91062864 -120.34181199 202.95410814 -120.39577961 175.99734592 C-120.42150906 163.47950788 -120.45655878 150.96182818 -120.51391602 138.4440918 C-120.56391224 127.52758657 -120.59604794 116.61119609 -120.60716122 105.69457954 C-120.61365254 99.91975722 -120.62879868 94.14526301 -120.66536903 88.37054634 C-120.6995851 82.9228833 -120.70972044 77.47568007 -120.70225716 72.02791977 C-120.70362034 70.04030156 -120.71339872 68.05266619 -120.73274612 66.06514168 C-120.95203176 42.35314579 -114.47824194 23.59990182 -97.82421875 6.2421875 C-70.8762862 -19.75782782 -30.37268993 -20.65191619 0 0 Z " fill="#FBFDFD" transform="translate(137.13671875,463.1328125)"/>
<path d="M0 0 C9.09008111 8.53916711 14.57087525 18.87413753 15.14655113 31.44960594 C15.282569 36.68718557 15.2465779 41.92410555 15.21557617 47.1628418 C15.21472884 49.17429085 15.21520712 51.18574082 15.21690369 53.19718933 C15.2177609 58.63033127 15.20017955 64.06327264 15.17918181 69.49636817 C15.16036925 75.18448339 15.15866097 80.87260371 15.15510559 86.56074524 C15.14579856 97.31979389 15.12120296 108.07875059 15.09105712 118.83775884 C15.05747129 131.09169769 15.04101659 143.34564104 15.02597082 155.5996145 C14.99465221 180.79562722 14.94191786 205.99155845 14.875 231.1875 C11.245 231.1875 7.615 231.1875 3.875 231.1875 C3.87280016 229.6411287 3.87280016 229.6411287 3.87055588 228.06351757 C3.83393017 202.95721233 3.77444022 177.85104018 3.69109726 152.74484539 C3.65131999 140.60357637 3.61892078 128.46237204 3.60400391 116.32104492 C3.59098066 105.73633253 3.5639986 95.15176256 3.52038693 84.56713039 C3.49778749 78.96474729 3.48208842 73.36253976 3.48311615 67.76010704 C3.48386364 62.48150062 3.46587661 57.2032821 3.43383217 51.92477608 C3.42534862 49.99273321 3.42357269 48.06064675 3.42919731 46.12859344 C3.46524013 31.83900649 2.47623601 19.89287389 -8.125 9.1875 C-18.03904628 1.01060519 -28.74592167 0.05188853 -41.125 1.1875 C-50.20909866 2.96378701 -57.29734369 9.14073068 -62.79296875 16.38671875 C-69.57368818 27.46255665 -68.4300827 41.02666504 -68.44384766 53.52026367 C-68.45315884 55.4627524 -68.46332926 57.40523716 -68.47428894 59.34771729 C-68.50146885 64.59275802 -68.51670258 69.83777208 -68.52971697 75.08286452 C-68.5454003 80.57483063 -68.57217383 86.06674269 -68.5977478 91.55867004 C-68.64444374 101.9457865 -68.68123221 112.33291323 -68.71442068 122.72008067 C-68.75270711 134.55085762 -68.80210012 146.38158015 -68.85240483 158.21231115 C-68.95558802 182.53733371 -69.04489253 206.86239127 -69.125 231.1875 C-72.755 231.1875 -76.385 231.1875 -80.125 231.1875 C-80.19515593 205.05723956 -80.24802045 178.92699329 -80.28043652 152.79665756 C-80.29588952 140.66323443 -80.31694912 128.52986989 -80.35131836 116.39648438 C-80.38126864 105.81806213 -80.40058638 95.23968235 -80.40726548 84.66121888 C-80.41116819 79.06270481 -80.42030751 73.46431216 -80.44219017 67.8658371 C-80.46264423 62.58980769 -80.46881581 57.31394905 -80.46432304 52.03788376 C-80.46514426 50.10784602 -80.47105648 48.17780221 -80.48261642 46.24779892 C-80.58144413 28.88749961 -78.77415817 14.08139109 -66.3125 0.8125 C-47.13768255 -16.99268763 -19.69104474 -16.79530286 0 0 Z " fill="#FBFDFD" transform="translate(124.125,488.8125)"/>
<path d="M0 0 C4.00709611 0.8441916 6.46484168 2.59863126 9.75 5.0625 C10.73484375 5.79597656 11.7196875 6.52945312 12.734375 7.28515625 C13.48203125 7.85105469 14.2296875 8.41695313 15 9 C15.33 6.03 15.66 3.06 16 0 C16.33 0 16.66 0 17 0 C16.88205078 1.03447266 16.88205078 1.03447266 16.76171875 2.08984375 C16.58610927 7.69671399 16.58610927 7.69671399 19.32324219 12.40429688 C22.95249974 15.35185131 26.93382867 17.70959751 31 20 C30.98839844 19.26394531 30.97679687 18.52789062 30.96484375 17.76953125 C30.95582031 16.79371094 30.94679688 15.81789063 30.9375 14.8125 C30.92589844 13.84957031 30.91429687 12.88664062 30.90234375 11.89453125 C30.99513378 9.14423487 31.37888315 6.67520409 32 4 C32.33 4 32.66 4 33 4 C33.66 6.64 34.32 9.28 35 12 C34.34 12 33.68 12 33 12 C32.52463213 15.6626705 32.70288555 18.52373329 34 22 C37.09986734 25.02353682 40.33268822 27.43841911 43.8984375 29.87109375 C46.24634349 31.48269169 48.12093326 32.89787857 50 35 C48.46091043 36.25317174 46.91859134 37.5023775 45.375 38.75 C44.4675 39.4925 43.56 40.235 42.625 41 C40.51562193 42.60714519 38.74489573 43.65620197 36.375 44.75 C33.74172831 46.76591915 33.74172831 46.76591915 33.67578125 49.66015625 C33.68364525 51.77557307 33.74428414 53.8913987 33.85546875 56.00390625 C34.02453318 59.50856617 33.62495919 62.56272445 33 66 C32.67 66 32.34 66 32 66 C31.00749455 60.29309366 30.89522488 54.78591511 31 49 C30.15695312 49.6496875 29.31390625 50.299375 28.4453125 50.96875 C27.33873319 51.81275117 26.23195185 52.65648749 25.125 53.5 C24.56941406 53.92925781 24.01382813 54.35851562 23.44140625 54.80078125 C19.2265625 58 19.2265625 58 17 58 C17 61.63 17 65.26 17 69 C16.67 69 16.34 69 16 69 C16 66.03 16 63.06 16 60 C9.07 64.95 9.07 64.95 2 70 C1.34 69.67 0.68 69.34 0 69 C0 58.44 0 47.88 0 37 C-0.66 36.67 -1.32 36.34 -2 36 C-1.84152588 35.49243164 -1.68305176 34.98486328 -1.51977539 34.46191406 C-0.82830633 31.18677364 -0.7656084 27.94303931 -0.68359375 24.609375 C-0.66281265 23.90476135 -0.64203156 23.20014771 -0.62062073 22.47418213 C-0.55546163 20.23288319 -0.49639752 17.99147136 -0.4375 15.75 C-0.39428274 14.22655103 -0.35066743 12.70311329 -0.30664062 11.1796875 C-0.19981509 7.45324409 -0.09845361 3.72667506 0 0 Z " fill="#DDFEB2" transform="translate(593,326)"/>
<path d="M0 0 C11.81089744 7.51602564 11.81089744 7.51602564 16.7421875 11.3125 C21.71560169 15.02965386 26.88053422 18.48817134 32 22 C32 19.36 32 16.72 32 14 C32.33 14 32.66 14 33 14 C32.86464844 14.90878906 32.86464844 14.90878906 32.7265625 15.8359375 C32.59908456 19.02288591 32.80760248 21.01089465 34 24 C37.19440483 27.19773465 41.06356769 29.48587482 44.875 31.87109375 C48 34 48 34 49 37 C47.92878906 37.67804688 46.85757813 38.35609375 45.75390625 39.0546875 C37.94990433 43.81319611 37.94990433 43.81319611 32.78125 50.95703125 C32.58402302 53.41884658 32.58346742 55.56934787 33 58 C32.67 58 32.34 58 32 58 C31.505 54.04 31.505 54.04 31 50 C28.85038384 51.45300898 26.70532871 52.9120426 24.5625 54.375 C23.95083984 54.7875 23.33917969 55.2 22.70898438 55.625 C19.32135329 57.81095402 19.32135329 57.81095402 17 61 C15.65523362 61.82244296 14.27335035 62.5848838 12.875 63.3125 C9.76220347 64.98326619 6.85339067 66.72869602 4 68.8125 C1 71 1 71 0 71 C0 59.78 0 48.56 0 37 C-0.66 37 -1.32 37 -2 37 C-2.495 35.515 -2.495 35.515 -3 34 C-2.34 34 -1.68 34 -1 34 C-0.67 22.78 -0.34 11.56 0 0 Z " fill="#DDFEB2" transform="translate(676,325)"/>
<path d="M0 0 C3 2 3 2 3.73828125 4.49609375 C4.12031969 6.45306618 4.49535306 8.41141947 4.86328125 10.37109375 C6.45343222 14.0486594 8.34630795 14.5043166 12 16 C15.0532123 16.44575774 15.0532123 16.44575774 18.28245354 16.38476086 C19.53100526 16.3942174 20.77955698 16.40367394 22.0659436 16.41341704 C23.44352997 16.40878775 24.82111544 16.4038813 26.19869995 16.39872742 C27.66818768 16.40416807 29.13767104 16.41092014 30.60714734 16.41886932 C34.64120099 16.43690079 38.67507062 16.43633682 42.70915508 16.43273985 C47.06085882 16.4321163 51.41250065 16.44873332 55.76417542 16.46325684 C63.30243258 16.48605558 70.84064349 16.49793015 78.37893295 16.50238609 C89.27802298 16.50884442 100.17702936 16.53177624 111.0760857 16.55872939 C128.75904537 16.60201159 146.44200153 16.63197017 164.125 16.65356445 C181.30242645 16.67456984 198.47982411 16.7018411 215.65722656 16.73754883 C216.71603365 16.73974765 217.77484074 16.74194648 218.86573289 16.74421193 C224.1774546 16.75528148 229.48917604 16.76647431 234.80089736 16.77772844 C278.8672395 16.87093384 322.93359775 16.94252241 367 17 C367 18.32 367 19.64 367 21 C366.26033241 21.00059709 365.52066483 21.00119418 364.75858307 21.00180936 C320.92652643 21.03769795 277.09453871 21.09432868 233.26254576 21.17792095 C228.00038886 21.18793849 222.73823165 21.19778261 217.47607422 21.20751953 C216.42846692 21.2094609 215.38085962 21.21140228 214.30150664 21.21340248 C197.33551565 21.24442936 180.36953818 21.26140506 163.40352416 21.27319422 C145.99673589 21.28560221 128.59001865 21.31309566 111.18327522 21.35461307 C100.44109816 21.37975852 89.6990389 21.39311651 78.95683199 21.39142957 C71.59197048 21.39139983 64.22722903 21.40601417 56.8624143 21.43216428 C52.61233893 21.44682187 48.36250978 21.45500324 44.11241341 21.44580269 C40.21974919 21.43751847 36.32757979 21.44766276 32.43498898 21.47233662 C31.02840657 21.47802249 29.62177729 21.47700124 28.21520901 21.46851245 C20.41574355 21.42548282 14.60313081 21.62742499 8 26 C6.47552808 28.28642049 6.47552808 28.28642049 6.0625 30.875 C5.86140625 31.74640625 5.6603125 32.6178125 5.453125 33.515625 C5.30359375 34.33546875 5.1540625 35.1553125 5 36 C4.773125 37.19625 4.54625 38.3925 4.3125 39.625 C4.209375 40.40875 4.10625 41.1925 4 42 C3.67 40.68 3.34 39.36 3 38 C2.34 38 1.68 38 1 38 C0.80664062 37.31292969 0.61328125 36.62585938 0.4140625 35.91796875 C0.02347656 34.56638672 0.02347656 34.56638672 -0.375 33.1875 C-0.75785156 31.84751953 -0.75785156 31.84751953 -1.1484375 30.48046875 C-1.95266661 27.79532104 -1.95266661 27.79532104 -4 25 C-6.81477796 24.30803455 -6.81477796 24.30803455 -10 24 C-13.25 23.625 -13.25 23.625 -16 23 C-16.66 22.01 -17.32 21.02 -18 20 C-16.64455078 19.63648438 -16.64455078 19.63648438 -15.26171875 19.265625 C-14.08222656 18.93046875 -12.90273438 18.5953125 -11.6875 18.25 C-10.51574219 17.92515625 -9.34398437 17.6003125 -8.13671875 17.265625 C-4.74216495 15.89596693 -3.65172429 15.21416618 -2 12 C-1.21371974 8.96731113 -1.21371974 8.96731113 -0.8125 5.75 C-0.57466797 4.13351563 -0.57466797 4.13351563 -0.33203125 2.484375 C-0.16767578 1.25460938 -0.16767578 1.25460938 0 0 Z " fill="#F8BEE4" transform="translate(913,109)"/>
<path d="M0 0 C3.66376548 1.46550619 5.65225135 2.27373817 8.56640625 4.5390625 C9.21029297 5.03277344 9.85417969 5.52648437 10.51757812 6.03515625 C11.19240234 6.55980469 11.86722656 7.08445312 12.5625 7.625 C17.28666387 11.2378483 22.01065915 14.75590183 27 18 C32.03987134 21.29958428 36.91187322 24.78899406 41.75 28.375 C42.46671875 28.89964844 43.1834375 29.42429687 43.921875 29.96484375 C45.65313048 31.259904 47.3321545 32.62423912 49 34 C49 34.66 49 35.32 49 36 C46.74338009 37.81432241 44.48223847 39.51285629 42.125 41.1875 C41.43390137 41.68580322 40.74280273 42.18410645 40.03076172 42.69750977 C35.64683436 45.85072647 31.24048646 48.97265896 26.80078125 52.046875 C24.47521837 53.66860643 22.16315512 55.30617981 19.85546875 56.953125 C19.1082959 57.48494385 18.36112305 58.0167627 17.59130859 58.56469727 C16.10940135 59.62000447 14.62916258 60.67765992 13.15087891 61.73803711 C12.45784668 62.23053955 11.76481445 62.72304199 11.05078125 63.23046875 C10.43887939 63.66770264 9.82697754 64.10493652 9.1965332 64.55541992 C6.22008293 66.51292312 3.09307583 68.2325281 0 70 C0 46.9 0 23.8 0 0 Z " fill="#DDFEB2" transform="translate(513,325)"/>
<path d="M0 0 C18.2039964 14.59197814 30.17918881 35.38446777 33.85302734 58.48535156 C34.51379013 65.49634738 34.36152999 72.5453137 34.30712891 79.57910156 C34.30599803 81.65040057 34.30663897 83.72170118 34.30889893 85.79299927 C34.31003761 91.36639798 34.28666633 96.9394461 34.2586031 102.51276398 C34.23344731 108.35565878 34.23123633 114.19856331 34.22650146 120.04150391 C34.21411312 131.08374643 34.18134794 142.12582886 34.14110351 153.16800117 C34.09625636 165.74852134 34.07436631 178.32904951 34.05432177 190.90962982 C34.01261135 216.76829218 33.94234045 242.62681286 33.85302734 268.48535156 C33.19302734 268.48535156 32.53302734 268.48535156 31.85302734 268.48535156 C31.85063899 267.45481439 31.84825064 266.42427721 31.84578991 265.36251163 C31.78686408 240.22908081 31.71090092 215.09574484 31.61731243 189.96241856 C31.57244283 177.80788099 31.53300796 165.65337214 31.5065918 153.4987793 C31.48353998 142.89864672 31.45006226 132.29860572 31.40432578 121.69854587 C31.38049014 116.09152863 31.36169828 110.48460153 31.35541344 104.87753487 C31.34931863 99.58747628 31.32916204 94.29764807 31.29875183 89.00767517 C31.29004149 87.07815088 31.28623427 85.14859639 31.28801918 83.21905327 C31.30583459 55.04424385 25.39982455 30.06656551 4.85302734 9.48535156 C4.09376953 8.71449219 3.33451172 7.94363281 2.55224609 7.14941406 C-13.55110639 -8.29504511 -35.41004109 -16.15416378 -57.52197266 -15.95214844 C-58.7044458 -15.9438501 -59.88691895 -15.93555176 -61.10522461 -15.92700195 C-70.07116901 -15.75390471 -77.72931281 -14.77528219 -86.14697266 -11.51464844 C-86.78602539 -11.27858887 -87.42507812 -11.0425293 -88.08349609 -10.79931641 C-112.27619843 -1.748935 -128.61131455 15.16124274 -139.28955078 38.48242188 C-143.2824048 47.80969248 -145.29288405 56.96117477 -145.30519104 67.05903625 C-145.31012902 67.92085437 -145.31506699 68.78267249 -145.32015461 69.67060632 C-145.33550753 72.55717638 -145.34388427 75.44372424 -145.35229492 78.33032227 C-145.36187518 80.40000097 -145.37188534 82.46967772 -145.3822937 84.53935242 C-145.40933284 90.15869935 -145.4303478 95.77805468 -145.45029569 101.39743066 C-145.47216132 107.26978602 -145.49954719 113.14211555 -145.52635193 119.01445007 C-145.57627098 130.13488316 -145.62121276 141.25533059 -145.66437429 152.37579173 C-145.71375337 165.03590154 -145.76866903 177.69598542 -145.82405388 190.35607016 C-145.93786186 216.39913978 -146.0447035 242.44223426 -146.14697266 268.48535156 C-147.13697266 268.48535156 -148.12697266 268.48535156 -149.14697266 268.48535156 C-149.24061295 241.65915689 -149.31104818 214.83298688 -149.35422134 188.00666142 C-149.37480448 175.54938846 -149.40284358 163.09221734 -149.44873047 150.63500977 C-149.48872858 139.77124266 -149.51443631 128.90754935 -149.52332664 118.04371065 C-149.52851946 112.2968856 -149.54063525 106.55027158 -149.56989288 100.80351448 C-149.59726732 95.38215939 -149.60537357 89.96110003 -149.59940338 84.53968239 C-149.60049384 82.56174863 -149.60831527 80.58380382 -149.62379456 78.60593033 C-149.83232195 50.55918674 -141.50337055 26.29153416 -121.58447266 5.85644531 C-87.96003156 -26.15519556 -36.36056941 -27.94995695 0 0 Z " fill="#A0FBFC" transform="translate(149.14697265625,451.5146484375)"/>
<path d="M0 0 C12.34046334 9.54357632 21.85080208 22.4388355 26.69335938 37.30957031 C27.09082855 38.48702127 27.09082855 38.48702127 27.4963274 39.68825912 C30.43034837 49.65981307 30.09346336 59.56623264 30.03393555 69.85742188 C30.03308808 71.91827889 30.03356675 73.9791368 30.03526306 76.03999329 C30.03611977 81.60323532 30.01854666 87.16628121 29.99754119 92.72947788 C29.97872013 98.55505426 29.97701968 104.3806357 29.97346497 110.20623779 C29.96416041 121.2237887 29.93956819 132.24124974 29.9094165 143.25876117 C29.87582292 155.80776021 29.85937402 168.35676367 29.84433019 180.90579653 C29.8130172 206.70710418 29.76028772 232.5083322 29.69335938 258.30957031 C29.03335938 258.30957031 28.37335938 258.30957031 27.69335938 258.30957031 C27.69097102 257.27111403 27.68858267 256.23265774 27.68612194 255.16273308 C27.62723852 229.85510561 27.55130116 204.54757267 27.45764446 179.24004936 C27.41274397 167.00135028 27.37331607 154.76267993 27.34692383 142.52392578 C27.3238972 131.8524066 27.29044714 121.18097876 27.24465781 110.50953209 C27.22078851 104.86292756 27.20201854 99.21641314 27.19574547 93.56975937 C27.18966611 88.24605837 27.16956383 82.92258777 27.13908386 77.59897232 C27.13034915 75.65367487 27.12657149 73.70834725 27.12835121 71.76303101 C27.1430943 48.19516281 22.00445719 26.39290848 5.27148438 8.69238281 C-2.45972932 1.54686712 -11.41667134 -4.0649962 -21.30664062 -7.69042969 C-22.36625 -8.08230469 -23.42585938 -8.47417969 -24.51757812 -8.87792969 C-43.45149344 -14.89665773 -63.84080924 -13.01379765 -81.61914062 -4.44042969 C-87.81017355 -1.16692976 -93.11488191 2.62609566 -98.30664062 7.30957031 C-99.00273438 7.91285156 -99.69882813 8.51613281 -100.41601562 9.13769531 C-111.26325845 19.1440666 -119.02264407 34.68650988 -121.30664062 49.30957031 C-121.40862782 52.16274336 -121.46136466 54.99208838 -121.46485901 57.84529114 C-121.46979699 58.70302571 -121.47473496 59.56076027 -121.47982258 60.4444868 C-121.4951749 63.31723732 -121.50355208 66.18996553 -121.51196289 69.06274414 C-121.52154319 71.12257076 -121.53155336 73.18239542 -121.54196167 75.24221802 C-121.56900029 80.83470625 -121.59001554 86.4272029 -121.60996366 92.01972032 C-121.63182961 97.86404854 -121.65921533 103.7083508 -121.6860199 109.55265808 C-121.73593852 120.61996715 -121.78088045 131.68729063 -121.82404226 142.75462788 C-121.87342171 155.35427943 -121.92833723 167.95390493 -121.98372185 180.55353129 C-122.09752916 206.47218667 -122.20437095 232.39086702 -122.30664062 258.30957031 C-123.29664063 258.30957031 -124.28664063 258.30957031 -125.30664062 258.30957031 C-125.40026116 231.59648885 -125.47070653 204.88343214 -125.51388931 178.17021942 C-125.53447661 165.76560467 -125.56252376 153.36109211 -125.60839844 140.95654297 C-125.64838371 130.13929723 -125.67410126 119.32212554 -125.6829946 108.50480795 C-125.68818958 102.78204774 -125.70031933 97.0594993 -125.72956085 91.33680725 C-125.75691489 85.93925743 -125.76504556 80.54200458 -125.75907135 75.14439201 C-125.76016271 73.17410093 -125.76799649 71.20379887 -125.78346252 69.23356819 C-125.89397009 54.41649026 -124.72683573 40.26938438 -117.55664062 26.93457031 C-117.21375 26.27521484 -116.87085938 25.61585938 -116.51757812 24.93652344 C-113.42213832 19.16928978 -109.72742527 14.1409812 -105.30664062 9.30957031 C-104.71625 8.62765625 -104.12585938 7.94574219 -103.51757812 7.24316406 C-76.78779787 -21.81836298 -30.77511632 -22.44670913 0 0 Z " fill="#A0FBFC" transform="translate(139.306640625,461.6904296875)"/>
<path d="M0 0 C4.02122628 2.68081752 3.99709051 5.05675761 5.05859375 9.58984375 C6.2208928 12.56552223 7.28759174 13.35511356 10 15 C12.46605646 15.44924182 12.46605646 15.44924182 15.1774025 15.38476086 C16.23038536 15.3942174 17.28336823 15.40367394 18.36825967 15.41341704 C19.52389279 15.40856947 20.67952591 15.40372189 21.87017822 15.39872742 C23.09866163 15.40537424 24.32714504 15.41202107 25.59285522 15.41886932 C29.00444441 15.43431492 32.41556834 15.43633381 35.8271594 15.43273985 C39.50541435 15.43211695 43.18359576 15.44872715 46.86181641 15.46325684 C53.23511547 15.48606812 59.60835978 15.49793229 65.98169708 15.50238609 C75.19648637 15.50884133 84.41117658 15.53176765 93.62592599 15.55872939 C108.57579871 15.60202371 123.52566728 15.63197534 138.47558594 15.65356445 C152.99904427 15.67456622 167.52246851 15.7018343 182.04589844 15.73754883 C183.38847011 15.74084707 183.38847011 15.74084707 184.75816444 15.74421193 C189.24830353 15.75528139 193.73844231 15.76647423 198.22858095 15.77772844 C235.48569121 15.87095098 272.7428183 15.94253159 310 16 C310 17.32 310 18.64 310 20 C309.08150547 20.00146521 309.08150547 20.00146521 308.14445549 20.00296003 C271.84444061 20.0612452 235.54448808 20.13505194 199.24454731 20.22898628 C194.88495566 20.2402543 190.52536368 20.25139278 186.16577148 20.26245117 C185.29786338 20.26465486 184.42995527 20.26685854 183.53574692 20.269129 C169.48684107 20.30449136 155.43793528 20.32936149 141.38900144 20.35034702 C126.97109416 20.37211752 112.55324459 20.40517983 98.13538641 20.44870156 C89.24040445 20.47519673 80.34549437 20.49290782 71.45047491 20.49934604 C65.34897136 20.50460645 59.24755823 20.52084536 53.14610315 20.54566566 C49.62705608 20.55965831 46.10817078 20.56885986 42.58909416 20.56500816 C38.7692005 20.5609541 34.94961715 20.5800437 31.129776 20.60127258 C29.47070043 20.59400122 29.47070043 20.59400122 27.77810818 20.58658296 C20.8654941 20.64995074 13.29908189 20.90751424 8.00390625 25.87109375 C6.86418211 28.28801849 6.34753288 30.42316214 5.9375 33.0625 C5.39030176 36.52808886 5.00372728 37.99440907 3 41 C3 39.68 3 38.36 3 37 C2.34 37 1.68 37 1 37 C0.78085937 36.24074219 0.56171875 35.48148438 0.3359375 34.69921875 C-1.5099142 28.55860167 -1.5099142 28.55860167 -5.625 23.875 C-10.06346537 22.72428676 -14.42955129 22.26194271 -19 22 C-18.01 21.67 -17.02 21.34 -16 21 C-16 20.34 -16 19.68 -16 19 C-15.15695312 18.75765625 -14.31390625 18.5153125 -13.4453125 18.265625 C-12.34960938 17.93046875 -11.25390625 17.5953125 -10.125 17.25 C-8.48917969 16.76273438 -8.48917969 16.76273438 -6.8203125 16.265625 C-3.96918348 15.26379601 -3.96918348 15.26379601 -2.6875 13.21875 C-1.86867144 10.57616692 -1.32989108 7.97934646 -0.875 5.25 C-0.70742188 4.26515625 -0.53984375 3.2803125 -0.3671875 2.265625 C-0.24601563 1.51796875 -0.12484375 0.7703125 0 0 Z " fill="#F8BEE4" transform="translate(970,140)"/>
<path d="M0 0 C2.55227441 1.97811098 4.95909764 4.04235541 7.34765625 6.21484375 C8.13140625 6.91738281 8.91515625 7.61992187 9.72265625 8.34375 C22.13548056 20.06464322 28.69016771 35.23543335 29.43738186 52.25904179 C29.47243516 54.42990713 29.47628839 56.59852288 29.46791077 58.76965332 C29.4691924 60.00497213 29.4691924 60.00497213 29.47049993 61.26524687 C29.47213731 64.00432786 29.46666209 66.74334659 29.46118164 69.48242188 C29.46089937 71.45402017 29.46105829 73.42561857 29.46162415 75.3972168 C29.46191055 80.73542504 29.45603916 86.07361072 29.44905019 91.41181374 C29.44279054 96.9958548 29.44221078 102.5798964 29.44102478 108.16394043 C29.43791916 118.73180363 29.42971614 129.29965645 29.41967529 139.86751509 C29.40849026 151.90132757 29.40299768 163.93514056 29.39797986 175.96895695 C29.38753289 200.71759163 29.36994835 225.46621711 29.34765625 250.21484375 C28.35765625 250.21484375 27.36765625 250.21484375 26.34765625 250.21484375 C26.34545641 248.64942872 26.34545641 248.64942872 26.34321213 247.05238914 C26.30656239 221.6195699 26.24704108 196.18688178 26.16375351 170.75417137 C26.12400121 158.45492722 26.09158934 146.15574671 26.07666016 133.85644531 C26.06362393 123.13216996 26.03660888 112.40803485 25.99304318 101.68383849 C25.97047284 96.00926063 25.95474292 90.33485545 25.9557724 84.66022873 C25.95652162 79.3102083 25.93846574 73.96056896 25.90648842 68.6106472 C25.89802646 66.65567579 25.89621407 64.70066145 25.90185356 62.74567986 C25.95174669 42.77747849 22.08168503 25.37229419 7.79296875 10.4296875 C-5.66021216 -1.75554185 -21.71441518 -6.55075644 -39.46484375 -6.16015625 C-55.26819296 -5.34434914 -69.69854353 2.19215248 -80.46875 13.6171875 C-94.45477631 30.25530467 -95.94862512 49.17744884 -95.97119141 69.93652344 C-95.98050428 71.90871587 -95.99067494 73.8809044 -96.00163269 75.85308838 C-96.02879357 81.17451388 -96.04404061 86.49591312 -96.05706072 91.81738949 C-96.07275248 97.39076161 -96.09952327 102.96408057 -96.12509155 108.53741455 C-96.17177269 119.07678669 -96.20856827 129.61616895 -96.24176443 140.15559125 C-96.28006139 152.16051087 -96.3294516 164.16537696 -96.37974858 176.17025137 C-96.48290973 200.85174243 -96.57222133 225.53326791 -96.65234375 250.21484375 C-97.31234375 250.21484375 -97.97234375 250.21484375 -98.65234375 250.21484375 C-98.74594437 223.61487551 -98.81639996 197.01493209 -98.85959244 170.41483212 C-98.88018394 158.06287556 -98.9082392 145.71102157 -98.95410156 133.35913086 C-98.99407389 122.58840649 -99.01980134 111.81775643 -99.02869773 101.04695994 C-99.03389488 95.34826457 -99.04603868 89.64978171 -99.07526398 83.95115471 C-99.10259747 78.57741014 -99.11075274 73.20396381 -99.10477448 67.83015633 C-99.10586674 65.86750793 -99.11371294 63.90484861 -99.12916565 61.94226074 C-99.28252753 41.44315075 -95.66989506 24.93946773 -81.0234375 9.52734375 C-59.68396765 -11.28479159 -25.70106876 -17.29806837 0 0 Z " fill="#A0FBFC" transform="translate(126.65234375,469.78515625)"/>
<path d="M0 0 C10.13914073 5.61059171 16.76519875 13.66556773 20.33756697 24.65011585 C21.32039385 28.40862311 21.38179441 31.97851707 21.33732605 35.84474182 C21.33988932 36.67730922 21.3424526 37.50987662 21.34509355 38.36767334 C21.34999825 41.13146759 21.33359382 43.89470413 21.31713867 46.65844727 C21.31629168 48.64989713 21.31676895 50.64134792 21.31846619 52.63279724 C21.31932475 58.02060495 21.30172137 63.40821112 21.28074431 68.79597211 C21.26195442 74.43338317 21.26022525 80.07079915 21.25666809 85.70823669 C21.24735443 96.37527074 21.22274979 107.04221223 21.19261962 117.70920557 C21.15905452 129.85669128 21.14258429 142.00418148 21.12753332 154.15170205 C21.09619967 179.13243595 21.04345233 204.11308778 20.9765625 229.09375 C19.9865625 229.09375 18.9965625 229.09375 17.9765625 229.09375 C17.97436266 227.53826541 17.97436266 227.53826541 17.97211838 225.95135689 C17.93550166 200.70353441 17.87602348 175.45584436 17.79265976 150.20813179 C17.75287313 137.99845284 17.72047867 125.78883832 17.70556641 113.57910156 C17.69254801 102.93543546 17.66557834 92.29191111 17.62194943 81.64832485 C17.59933908 76.01411572 17.58365158 70.38008142 17.58467865 64.74582291 C17.5854255 59.43849308 17.56746432 54.13154967 17.53539467 48.82431984 C17.52690302 46.88056895 17.52514072 44.93677469 17.53075981 42.99301338 C17.56421816 29.63590833 16.93180478 19.2653184 7.3359375 9.07421875 C-0.83278614 2.21735967 -10.65410842 0.21310124 -21.0234375 1.09375 C-30.59517723 3.30943049 -38.12912788 7.66384027 -43.3984375 16.03125 C-47.25444705 22.65540048 -48.32100799 29.04768928 -48.3019104 36.56626892 C-48.310599 37.80643142 -48.310599 37.80643142 -48.31946313 39.0716477 C-48.33639821 41.8276718 -48.33933402 44.58352778 -48.34228516 47.33959961 C-48.35158781 49.32090665 -48.36175699 51.30220979 -48.37272644 53.2835083 C-48.4000024 58.65274897 -48.41516878 64.02196344 -48.42815447 69.39125514 C-48.44379548 75.00603026 -48.47058263 80.62075195 -48.4961853 86.23548889 C-48.54295586 96.86356745 -48.57970835 107.49165607 -48.61285818 118.11978489 C-48.6510917 130.22132198 -48.70049867 142.32280539 -48.75084233 154.42429721 C-48.85413658 179.31407501 -48.94340518 204.2038873 -49.0234375 229.09375 C-50.0134375 229.09375 -51.0034375 229.09375 -52.0234375 229.09375 C-52.07020025 203.59812679 -52.10544731 178.10251002 -52.12706184 152.60685253 C-52.1373655 140.7682419 -52.15140844 128.92965796 -52.17431641 117.09106445 C-52.19427814 106.77011465 -52.20716056 96.44918418 -52.21161449 86.12821561 C-52.21421715 80.66557854 -52.2203156 75.20299675 -52.23489761 69.74037743 C-52.24852548 64.59323742 -52.25264964 59.4461752 -52.24965286 54.29901886 C-52.2502007 52.41533039 -52.254147 50.53163919 -52.26184845 48.64796638 C-52.32359721 32.75860378 -52.04456015 19.61819985 -40.7734375 7.28125 C-30.55157127 -2.37019958 -13.08543932 -5.45647663 0 0 Z " fill="#A0FBFC" transform="translate(107.0234375,490.90625)"/>
<path d="M0 0 C12.30019892 9.06861957 18.89321475 20.79650191 21.37890625 35.75390625 C22.04207154 42.48101998 21.88724714 49.24874448 21.83300781 55.99975586 C21.83187703 57.99209063 21.83251769 59.98442706 21.83477783 61.97676086 C21.83591689 67.33948726 21.81253949 72.70184957 21.784482 78.06449199 C21.75933253 83.6858435 21.75711573 89.30720504 21.75238037 94.92860413 C21.73999019 105.55297452 21.70722249 116.17717861 21.66698241 126.80147606 C21.62214103 138.90556042 21.60024665 151.00965307 21.58020067 163.11379993 C21.53848609 187.99392727 21.46821157 212.8739074 21.37890625 237.75390625 C20.38890625 237.75390625 19.39890625 237.75390625 18.37890625 237.75390625 C18.3765179 236.71268458 18.37412954 235.67146292 18.37166882 234.59868908 C18.31282642 209.24204266 18.23691423 183.88549091 18.14319134 158.52894878 C18.09826087 146.26662239 18.0588398 134.00432487 18.0324707 121.74194336 C18.00946843 111.05177502 17.97604537 100.36169824 17.93020469 89.67160255 C17.90630268 84.01335634 17.88755405 78.35520064 17.88129234 72.69690514 C17.87522789 67.36582606 17.85517869 62.03497847 17.82463074 56.70398521 C17.81587234 54.75259002 17.81212335 52.80116456 17.81389809 50.84975052 C17.824616 33.6194884 15.76158763 20.80765976 3.81640625 7.50390625 C-5.08122886 -0.87642449 -16.88739177 -5.09269149 -28.95703125 -5.3046875 C-43.38283981 -4.81108919 -54.94468234 0.49277844 -64.80859375 10.94140625 C-72.75075806 20.78615031 -75.9312028 32.08161434 -75.89956665 44.50489807 C-75.90535905 45.33746547 -75.91115145 46.17003287 -75.91711938 47.02782959 C-75.9339975 49.79146124 -75.93698529 52.55492467 -75.93994141 55.31860352 C-75.94924801 57.31005761 -75.95941776 59.30150783 -75.97038269 61.29295349 C-75.99761417 66.68067026 -76.01281178 72.06836098 -76.02581072 77.45612836 C-76.04147127 83.09358017 -76.06825216 88.73097903 -76.09384155 94.36839294 C-76.14057758 105.0353626 -76.17734675 115.70234228 -76.21051443 126.36936182 C-76.24877239 138.51689337 -76.29817293 150.66437167 -76.34849858 162.8118583 C-76.45174146 187.79250145 -76.54102671 212.77317882 -76.62109375 237.75390625 C-77.28109375 237.75390625 -77.94109375 237.75390625 -78.62109375 237.75390625 C-78.71462983 211.10212571 -78.78511846 184.45036985 -78.82834244 157.7984581 C-78.84894756 145.42287451 -78.87702907 133.04739304 -78.92285156 120.671875 C-78.96278196 109.8825016 -78.98854146 99.09320219 -78.99744773 88.30375695 C-79.00265193 82.59342045 -79.01484119 76.88329557 -79.04401398 71.17302704 C-79.07128097 65.79190492 -79.07951595 60.41108043 -79.07352448 55.02989578 C-79.07461967 53.06114964 -79.08250592 51.09239295 -79.09791565 49.12370682 C-79.22113721 32.56088633 -76.95208858 19.00668046 -65.3671875 6.27734375 C-47.2496498 -11.11316596 -21.03722242 -13.47327728 0 0 Z " fill="#A0FBFC" transform="translate(120.62109375,482.24609375)"/>
<path d="M0 0 C5.34931506 3.49800384 9.19263762 8.3303809 11.14453125 14.40234375 C11.32670146 17.18145502 11.40611971 19.8572021 11.38504028 22.63435364 C11.38674913 23.45941979 11.38845798 24.28448593 11.39021862 25.13455409 C11.39351063 27.89683884 11.38251455 30.65888023 11.37158203 33.42114258 C11.37101786 35.40215041 11.3713346 37.38315867 11.37246704 39.36416626 C11.3730413 44.74183444 11.36127502 50.11941355 11.34731913 55.49706101 C11.33482407 61.11715129 11.33364223 66.73724356 11.33126831 72.35734558 C11.32504995 82.99969695 11.30863428 93.64200727 11.28856933 104.28434056 C11.26622145 116.40030248 11.25521969 128.51626635 11.24517846 140.63224375 C11.22426838 165.55563318 11.18908545 190.47898617 11.14453125 215.40234375 C10.15453125 215.40234375 9.16453125 215.40234375 8.14453125 215.40234375 C8.14306469 214.3738179 8.14159813 213.34529205 8.14008713 212.28559875 C8.10348674 187.25545227 8.04402998 162.22543954 7.96062851 137.19540405 C7.92082486 125.09104186 7.88843905 112.9867448 7.87353516 100.88232422 C7.86052557 90.33170007 7.83357848 79.78121917 7.78991818 69.2306757 C7.76728796 63.6445964 7.75162152 58.0586939 7.7526474 52.4725647 C7.75339307 47.21284418 7.73547905 41.95351469 7.70336342 36.69389534 C7.69485702 34.76543015 7.6931195 32.83692115 7.69872856 30.90844536 C7.70537883 28.27021422 7.68742376 25.6332235 7.66351318 22.99511719 C7.6712736 22.23633931 7.67903402 21.47756144 7.6870296 20.69579029 C7.60000658 15.25216445 6.24292651 10.92181972 3.14453125 6.40234375 C-2.44733804 1.95167228 -7.01132561 0.98468086 -13.99609375 1.05859375 C-18.48946253 1.59878016 -21.53223677 3.39262422 -24.85546875 6.40234375 C-29.26969417 12.06160711 -30.00480753 16.37052509 -30.01368713 23.35588074 C-30.01862511 24.17515448 -30.02356309 24.99442823 -30.0286507 25.83852845 C-30.04405044 28.5931152 -30.05239303 31.34767858 -30.06079102 34.10229492 C-30.07036759 36.07315782 -30.08037754 38.04401866 -30.09078979 40.01487732 C-30.1178688 45.37401971 -30.13886215 50.73317094 -30.15879178 56.09234405 C-30.18063286 61.68977841 -30.20803073 67.28718545 -30.23484802 72.88459778 C-30.28480033 83.48802354 -30.32972974 94.09146446 -30.37287039 104.69491988 C-30.42222108 116.76491086 -30.47714724 128.83487444 -30.53254998 140.90483892 C-30.64640898 165.73731497 -30.75323949 190.5698173 -30.85546875 215.40234375 C-31.84546875 215.40234375 -32.83546875 215.40234375 -33.85546875 215.40234375 C-33.92556121 189.59415205 -33.97845814 163.78597463 -34.01090527 137.97770691 C-34.02637171 125.99438291 -34.04745707 114.01111806 -34.08178711 102.02783203 C-34.11169616 91.58275755 -34.13104537 81.13772591 -34.13773423 70.69260979 C-34.14164391 65.16241019 -34.15082776 59.63233316 -34.17265892 54.10217285 C-34.19304776 48.89510047 -34.19929765 43.68820096 -34.19479179 38.48109245 C-34.19561592 36.57195025 -34.20156721 34.66280217 -34.21308517 32.75369453 C-34.22806683 30.1419821 -34.22440177 27.53091768 -34.2162323 24.91918945 C-34.22497082 24.16819347 -34.23370935 23.41719749 -34.24271268 22.64344406 C-34.17887024 15.06415196 -31.8492212 8.55702232 -26.6484375 2.9453125 C-18.76572316 -3.83828699 -9.14932328 -4.50255664 0 0 Z " fill="#A0FBFC" transform="translate(102.85546875,504.59765625)"/>
<path d="M0 0 C0.99 0 1.98 0 3 0 C3.17015625 0.75925781 3.3403125 1.51851563 3.515625 2.30078125 C3.75796875 3.29464844 4.0003125 4.28851563 4.25 5.3125 C4.48203125 6.29863281 4.7140625 7.28476563 4.953125 8.30078125 C6.19086579 11.49212037 6.97527823 12.43181371 10 14 C15.63439087 15.0514683 21.13227852 15.1520283 26.83921814 15.15821838 C27.81300102 15.16315636 28.78678391 15.16809434 29.79007536 15.17318195 C33.04356095 15.1885045 36.29702689 15.19690335 39.55053711 15.20532227 C41.88651705 15.21490491 44.22249526 15.22491522 46.55847168 15.23532104 C52.89462093 15.26233428 59.2307776 15.28336325 65.56695247 15.30332303 C71.51946406 15.32298725 77.47195609 15.34712735 83.42445106 15.37124526 C95.2114215 15.41885742 106.99840368 15.46213879 118.78540039 15.50268555 C130.2326753 15.54207298 141.6799398 15.58350694 153.12719727 15.62768555 C154.1863156 15.63177196 154.1863156 15.63177196 155.26683026 15.63594092 C158.80916083 15.64962093 162.35149125 15.6633411 165.8938216 15.67708123 C195.26252568 15.79094579 224.63125335 15.89770486 254 16 C254 17.32 254 18.64 254 20 C252.78078606 20.00146656 251.56157211 20.00293312 250.30541229 20.00444412 C221.35326134 20.04015853 192.40119892 20.09641763 163.44914231 20.17792095 C159.88438955 20.18793822 156.31963634 20.19778238 152.75488281 20.20751953 C152.04521498 20.2094609 151.33554715 20.21140228 150.60437423 20.21340248 C139.1187659 20.24440996 127.63317755 20.26139963 116.14753526 20.27319422 C104.35915034 20.28561229 92.57087011 20.31312844 80.78255129 20.35461307 C74.16250103 20.37747798 67.5425662 20.39290895 60.92247009 20.39188385 C54.69097632 20.39113895 48.45981323 20.40902222 42.228405 20.44116783 C39.94194929 20.44968389 37.65545656 20.45140523 35.36899185 20.44580269 C32.24475356 20.43916727 29.12156877 20.45707365 25.99743652 20.48101807 C25.09469356 20.47325765 24.1919506 20.46549723 23.26185179 20.45750165 C17.4269135 20.53655234 12.84980369 21.62675121 8 25 C5.3417235 29.04520337 5.3927987 34.25540514 5 39 C4.34 39 3.68 39 3 39 C2.60167969 38.01257813 2.20335937 37.02515625 1.79296875 36.0078125 C1.25829608 34.71334182 0.72311313 33.41908183 0.1875 32.125 C-0.07353516 31.47402344 -0.33457031 30.82304688 -0.60351562 30.15234375 C-2.05805618 26.66862933 -2.78149589 25.14566941 -6 23 C-8.04869074 22.55570562 -10.11454293 22.18705805 -12.1875 21.875 C-13.27417969 21.70742187 -14.36085938 21.53984375 -15.48046875 21.3671875 C-16.31191406 21.24601562 -17.14335938 21.12484375 -18 21 C-15.59207207 18.13266476 -13.60631485 17.45144715 -10 16.625 C-6.0744239 15.52550081 -6.0744239 15.52550081 -3 12.9375 C-1.55819489 8.7021975 -0.72767367 4.40884635 0 0 Z " fill="#F8BEE4" transform="translate(1026,76)"/>
<path d="M0 0 C1.13426792 2.18751669 2.10709518 4.2998665 2.9375 6.625 C3.88458824 9.30799602 3.88458824 9.30799602 7 11 C8.9896995 11.39013716 10.99019869 11.73202649 13 12 C13 12.66 13 13.32 13 14 C14.65 14 16.3 14 18 14 C14.71546836 16.18968776 11.82587472 16.9965596 8.05859375 18.0234375 C5.87887891 18.84335935 5.87887891 18.84335935 4.76171875 20.8359375 C3.99303963 23.0197746 3.60501216 24.94987844 3.375 27.25 C3.25125 28.4875 3.1275 29.725 3 31 C0.55999015 28.22343707 -1.25274031 25.66305616 -2.625 22.25 C-3.61915311 18.91980434 -3.61915311 18.91980434 -6 18 C-7.56848513 17.90161512 -9.14110327 17.8661471 -10.71266365 17.8613348 C-12.2130135 17.85312313 -12.2130135 17.85312313 -13.74367344 17.84474558 C-14.85065897 17.84376747 -15.9576445 17.84278936 -17.09817505 17.84178162 C-18.85258229 17.83437465 -18.85258229 17.83437465 -20.64243209 17.82681805 C-23.89876539 17.81407519 -27.15507549 17.80580917 -30.41142631 17.79939139 C-33.91927558 17.79140176 -37.42710296 17.77769906 -40.93493652 17.76467896 C-47.01578208 17.74289577 -53.09662982 17.72475804 -59.17749405 17.70907402 C-67.96947667 17.68639214 -76.76143506 17.658247 -85.55339716 17.62875474 C-99.81667467 17.58105817 -114.07996206 17.5377996 -128.34326172 17.49731445 C-142.20134247 17.45797002 -156.05941442 17.41654633 -169.91748047 17.37231445 C-170.77123576 17.36959018 -171.62499105 17.36686591 -172.50461771 17.36405908 C-176.78752093 17.35037978 -181.07042401 17.33665947 -185.35332704 17.32291877 C-220.90219981 17.20892157 -256.4510912 17.1021194 -292 17 C-292 16.01 -292 15.02 -292 14 C-291.40307919 13.99864347 -290.80615838 13.99728694 -290.19114906 13.99588931 C-254.82664635 13.91527017 -219.46218491 13.8243283 -184.09774416 13.71994839 C-179.85316755 13.70742925 -175.60859069 13.69499652 -171.36401367 13.68261719 C-170.51898124 13.68015119 -169.67394882 13.6776852 -168.80330934 13.67514448 C-155.11382819 13.63540164 -141.42433876 13.60266105 -127.73483352 13.57250018 C-113.69212038 13.54140556 -99.64944241 13.5028047 -85.60676879 13.45720994 C-76.93903909 13.4293043 -68.27133516 13.40728027 -59.60357257 13.39273749 C-53.66283791 13.38220972 -47.7221531 13.36440253 -41.78145597 13.34083296 C-38.35204616 13.32744302 -34.92270633 13.31729918 -31.49326897 13.31578636 C-27.77709706 13.31247575 -24.06116941 13.29703049 -20.345047 13.2784729 C-19.25847284 13.28040763 -18.17189868 13.28234237 -17.05239803 13.28433573 C-15.55876374 13.27313749 -15.55876374 13.27313749 -14.03495502 13.26171303 C-12.74827269 13.25829554 -12.74827269 13.25829554 -11.43559676 13.25480902 C-8.63066804 12.96136096 -6.51832505 12.26256455 -4 11 C-2.79138812 8.65320522 -2.79138812 8.65320522 -2.25 5.9375 C-1.04190476 1.04190476 -1.04190476 1.04190476 0 0 Z " fill="#F8BEE4" transform="translate(296,308)"/>
<path d="M0 0 C5.92373563 4.93516914 11.29839774 10.25005495 16.65820312 15.78515625 C17.29048828 16.42839844 17.92277344 17.07164062 18.57421875 17.734375 C19.13713623 18.31413086 19.70005371 18.89388672 20.2800293 19.49121094 C22.08262248 21.07247791 23.81758456 22.0273856 26 23 C26.64549805 22.32831787 27.29099609 21.65663574 27.95605469 20.96459961 C30.35396623 18.48154108 32.76269686 16.01008901 35.1796875 13.5456543 C36.22397145 12.47620493 37.26372669 11.40231404 38.29882812 10.32397461 C39.78651929 8.77572131 41.28970227 7.24410864 42.796875 5.71484375 C43.69760742 4.78792725 44.59833984 3.86101074 45.52636719 2.90600586 C48 1 48 1 50.00439453 0.90722656 C52.84766219 2.46417127 54.84468351 4.47372119 57.1328125 6.76953125 C57.84967728 7.48564827 57.84967728 7.48564827 58.58102417 8.2162323 C59.58806327 9.22560742 60.59142166 10.23866642 61.59130859 11.25512695 C63.11794517 12.80533623 64.65744044 14.34181829 66.19921875 15.87695312 C74.38629832 24.11069585 74.38629832 24.11069585 76 28 C74.68 28.66 73.36 29.32 72 30 C65.77880703 24.52005556 59.90211474 18.91373292 54.32421875 12.7734375 C52.17474428 10.73970423 52.17474428 10.73970423 49.64770508 11.10742188 C46.2539458 12.25150523 44.7451371 13.89071718 42.3125 16.5078125 C41.44882813 17.41144531 40.58515625 18.31507813 39.6953125 19.24609375 C37.89453602 21.16953182 36.09767057 23.09663879 34.3046875 25.02734375 C33.44101563 25.92839844 32.57734375 26.82945312 31.6875 27.7578125 C30.90761719 28.5945752 30.12773438 29.43133789 29.32421875 30.29345703 C27 32 27 32 24.5246582 32.05834961 C21.2479584 30.68474032 19.399218 28.85073255 16.91796875 26.30859375 C16.45892654 25.84389175 15.99988434 25.37918976 15.52693176 24.90040588 C14.07075265 23.42193317 12.62914096 21.93013843 11.1875 20.4375 C10.19949902 19.42942493 9.21057596 18.4222527 8.22070312 17.41601562 C5.80303607 14.95437546 3.39823416 12.48059327 1 10 C-2.67704691 11.5305288 -4.89903891 13.73383079 -7.625 16.60546875 C-8.49640625 17.50587891 -9.3678125 18.40628906 -10.265625 19.33398438 C-12.09440432 21.24244622 -13.91730045 23.15656241 -15.734375 25.07617188 C-16.60578125 25.97271484 -17.4771875 26.86925781 -18.375 27.79296875 C-19.16648437 28.6233667 -19.95796875 29.45376465 -20.7734375 30.30932617 C-23 32 -23 32 -25.05688477 31.95361328 C-27.28834824 30.85848873 -28.87644743 29.62534028 -30.71484375 27.94921875 C-31.4094873 27.31806152 -32.10413086 26.6869043 -32.81982422 26.03662109 C-33.53928223 25.36453613 -34.25874023 24.69245117 -35 24 C-35.7130127 23.33693848 -36.42602539 22.67387695 -37.16064453 21.99072266 C-39.31872569 19.95484315 -41.44332274 17.88878682 -43.5625 15.8125 C-44.29791016 15.11447266 -45.03332031 14.41644531 -45.79101562 13.69726562 C-46.48001953 13.01986328 -47.16902344 12.34246094 -47.87890625 11.64453125 C-48.5035376 11.03971924 -49.12816895 10.43490723 -49.77172852 9.81176758 C-51 8 -51 8 -50.69506836 5.7722168 C-50.4656958 5.18738525 -50.23632324 4.60255371 -50 4 C-48.26171875 3.2644043 -48.26171875 3.2644043 -46 3 C-43.95703125 4.50708008 -43.95703125 4.50708008 -41.8125 6.76953125 C-41.03132813 7.57583984 -40.25015625 8.38214844 -39.4453125 9.21289062 C-38.63835937 10.07076172 -37.83140625 10.92863281 -37 11.8125 C-35.40039616 13.49003981 -33.79639486 15.1634002 -32.1875 16.83203125 C-31.12595703 17.95702026 -31.12595703 17.95702026 -30.04296875 19.10473633 C-28.09631122 20.91065201 -26.42819134 21.96699557 -24 23 C-23.01604248 22.00818726 -23.01604248 22.00818726 -22.01220703 20.99633789 C-19.58028964 18.54739147 -17.14614635 16.10070247 -14.71044922 13.65551758 C-13.6561597 12.59619526 -12.60276891 11.53597771 -11.55029297 10.47485352 C-10.03848143 8.95093039 -8.52348098 7.43024216 -7.0078125 5.91015625 C-6.09660645 4.99371338 -5.18540039 4.07727051 -4.24658203 3.13305664 C-2 1 -2 1 0 0 Z " fill="#F8BEE4" transform="translate(1144,667)"/>
<path d="M0 0 C3.63847659 1.11068068 5.05644138 2.43140042 7.60400391 5.22705078 C8.82023437 6.51482422 8.82023437 6.51482422 10.06103516 7.82861328 C11.73941033 9.65577133 13.41387898 11.4865253 15.08447266 13.32080078 C16.30070312 14.60470703 16.30070312 14.60470703 17.54150391 15.91455078 C18.26789063 16.70941895 18.99427734 17.50428711 19.74267578 18.32324219 C22.01250397 20.22343656 22.01250397 20.22343656 25.08203125 19.93945312 C28.50125652 18.79450112 30.00013534 17.55287767 32.45556641 14.93798828 C33.23029297 14.13361328 34.00501953 13.32923828 34.80322266 12.50048828 C35.98851562 11.23205078 35.98851562 11.23205078 37.19775391 9.93798828 C38.77668295 8.2646806 40.36235066 6.59769884 41.95556641 4.93798828 C42.65053223 4.19548828 43.34549805 3.45298828 44.06152344 2.68798828 C46.18420133 0.8410163 47.26103711 0.03357761 50.07275391 -0.06201172 C51.91235352 1.08374023 51.91235352 1.08374023 53.78759766 2.86376953 C54.48224121 3.51297363 55.17688477 4.16217773 55.89257812 4.83105469 C56.61203613 5.52634277 57.33149414 6.22163086 58.07275391 6.93798828 C58.7857666 7.60362793 59.4987793 8.26926758 60.23339844 8.95507812 C62.39426278 10.98575223 64.5171861 13.05028845 66.63525391 15.12548828 C67.73836914 16.1725293 67.73836914 16.1725293 68.86376953 17.24072266 C69.55277344 17.918125 70.24177734 18.59552734 70.95166016 19.29345703 C71.88860718 20.20067505 71.88860718 20.20067505 72.84448242 21.1262207 C74.07275391 22.93798828 74.07275391 22.93798828 73.76782227 25.16577148 C73.42376343 26.0430188 73.42376343 26.0430188 73.07275391 26.93798828 C68.76593131 26.44126309 66.94905835 25.25680596 64.04150391 22.08642578 C62.94902344 20.93400391 62.94902344 20.93400391 61.83447266 19.75830078 C60.32276148 18.1238773 58.81496057 16.48582871 57.31103516 14.84423828 C56.58271484 14.07853516 55.85439453 13.31283203 55.10400391 12.52392578 C54.44980469 11.81284668 53.79560547 11.10176758 53.12158203 10.36914062 C51.15172718 8.70014293 51.15172718 8.70014293 48.60229492 8.95019531 C45.47039125 10.17321261 43.88110676 11.7200942 41.56884766 14.15673828 C40.74578125 15.00623047 39.92271484 15.85572266 39.07470703 16.73095703 C38.2284375 17.62427734 37.38216797 18.51759766 36.51025391 19.43798828 C34.8285146 21.20515331 33.13998997 22.96589274 31.44384766 24.71923828 C30.70062256 25.50363281 29.95739746 26.28802734 29.19165039 27.09619141 C27.05044339 28.95738113 25.87080667 29.66658276 23.07275391 29.93798828 C21.42431641 28.99658203 21.42431641 28.99658203 19.69775391 27.37548828 C19.01455078 26.74513672 18.33134766 26.11478516 17.62744141 25.46533203 C15.58098623 23.44078081 13.5749524 21.3920184 11.58056641 19.31689453 C10.9622998 18.68017822 10.3440332 18.04346191 9.70703125 17.38745117 C8.45794538 16.09515386 7.22103545 14.79096794 5.99707031 13.47485352 C5.41876465 12.87487549 4.84045898 12.27489746 4.24462891 11.65673828 C3.7299707 11.10953125 3.2153125 10.56232422 2.68505859 9.99853516 C1.12599325 8.75047585 1.12599325 8.75047585 -0.85229492 9.00439453 C-3.6244635 10.25169099 -5.20847153 11.95110599 -7.29833984 14.15673828 C-8.12011719 15.00623047 -8.94189453 15.85572266 -9.78857422 16.73095703 C-11.50416681 18.53369497 -13.21771514 20.33838059 -14.92919922 22.14501953 C-15.75226563 22.99451172 -16.57533203 23.84400391 -17.42333984 24.71923828 C-18.16769287 25.50363281 -18.9120459 26.28802734 -19.67895508 27.09619141 C-22.18643199 29.150313 -23.71131188 29.73932182 -26.92724609 29.93798828 C-29.18115234 28.48876953 -29.18115234 28.48876953 -31.48974609 26.25048828 C-32.34568359 25.42548828 -33.20162109 24.60048828 -34.08349609 23.75048828 C-35.02193359 22.82236328 -35.96037109 21.89423828 -36.92724609 20.93798828 C-38.01897215 19.91499074 -39.11278547 18.89421689 -40.20849609 17.87548828 C-41.30348679 16.8351259 -42.39725597 15.79347622 -43.48974609 14.75048828 C-44.2768396 14.02116089 -44.2768396 14.02116089 -45.07983398 13.27709961 C-48.43671753 9.99238323 -49.64238581 7.62776118 -49.92724609 2.93798828 C-48.93724609 2.60798828 -47.94724609 2.27798828 -46.92724609 1.93798828 C-45.27099609 2.98486328 -45.27099609 2.98486328 -43.42724609 4.68798828 C-42.73244141 5.32478516 -42.03763672 5.96158203 -41.32177734 6.61767578 C-39.54897899 8.33552606 -37.79899344 10.06555041 -36.06396484 11.82080078 C-35.57541016 12.31483398 -35.08685547 12.80886719 -34.58349609 13.31787109 C-33.16272572 14.76414731 -31.75374669 16.22197779 -30.34521484 17.68017578 C-28.06510373 20.12333199 -28.06510373 20.12333199 -24.92724609 20.93798828 C-23.2578764 19.99426157 -23.2578764 19.99426157 -21.61474609 18.37548828 C-20.91994141 17.74513672 -20.22513672 17.11478516 -19.50927734 16.46533203 C-17.45355771 14.4531526 -15.4714623 12.41099481 -13.50146484 10.31689453 C-12.58844604 9.36182007 -12.58844604 9.36182007 -11.65698242 8.38745117 C-10.43079991 7.0986441 -9.22052855 5.79448976 -8.02758789 4.47485352 C-7.45564697 3.87487549 -6.88370605 3.27489746 -6.29443359 2.65673828 C-5.79024902 2.10953125 -5.28606445 1.56232422 -4.76660156 0.99853516 C-2.92724609 -0.06201172 -2.92724609 -0.06201172 0 0 Z " fill="#A0FBFC" transform="translate(1195.92724609375,644.06201171875)"/>
<path d="M0 0 C3 2 3 2 3.875 5.4375 C4.66576929 9.08100866 4.66576929 9.08100866 7.3125 10.875 C9.89869652 11.95759389 12.22973281 12.60424754 15 13 C14.9375 14.8125 14.9375 14.8125 14 17 C11.67328135 18.01529541 9.3396553 19.01488198 7 20 C4.30472337 23.30783949 4.41151834 27.88481662 4 32 C0.26737992 27.91189229 -0.03002811 24.90991568 -2 19 C-69.32 18.67 -136.64 18.34 -206 18 C-206 16.68 -206 15.36 -206 14 C-204.96686519 13.99668985 -203.93373037 13.99337971 -202.86928844 13.98996925 C-177.75747627 13.90905773 -152.64572569 13.81676771 -127.53399944 13.71247292 C-115.39027357 13.66230201 -103.24655461 13.61585966 -91.1027832 13.578125 C-80.5211149 13.54523492 -69.93949948 13.50542034 -59.35788947 13.45720994 C-53.75245209 13.43191523 -48.14704993 13.41014277 -42.54157066 13.39665604 C-37.2696559 13.38386262 -31.99786171 13.36183777 -26.72601318 13.33261681 C-24.78738009 13.3235197 -22.84872757 13.31784586 -20.91007423 13.31578636 C-18.27041149 13.31247885 -15.63109378 13.2970427 -12.99150085 13.2784729 C-11.83148773 13.281375 -11.83148773 13.281375 -10.64804 13.28433573 C-6.89032581 13.24460797 -5.2074652 13.13831013 -2 11 C-1.19907746 8.35308332 -1.19907746 8.35308332 -0.8125 5.375 C-0.65394531 4.37210937 -0.49539062 3.36921875 -0.33203125 2.3359375 C-0.22246094 1.56507813 -0.11289063 0.79421875 0 0 Z " fill="#F8BEE4" transform="translate(206,334)"/>
<path d="M0 0 C0.99 0 1.98 0 3 0 C3.42317708 2.01822917 3.84635417 4.03645833 4.26953125 6.0546875 C4.92308838 8.37046549 4.92308838 8.37046549 8 10 C9.54766142 10.5827119 11.11192222 11.12264187 12.6875 11.625 C13.49574219 11.88539063 14.30398438 12.14578125 15.13671875 12.4140625 C15.75160156 12.60742188 16.36648438 12.80078125 17 13 C17 13.66 17 14.32 17 15 C13.37 15.99 9.74 16.98 6 18 C5.34 21.96 4.68 25.92 4 30 C1.41645948 26.5552793 -0.2589364 23.55194089 -2.03515625 19.70703125 C-2.89107469 17.8217125 -2.89107469 17.8217125 -5 17 C-6.35475063 16.9027426 -7.71412294 16.86619057 -9.07235146 16.8613348 C-10.35847248 16.85312313 -10.35847248 16.85312313 -11.67057574 16.84474558 C-12.61803239 16.84376747 -13.56548904 16.84278936 -14.54165649 16.84178162 C-16.04492526 16.83437465 -16.04492526 16.83437465 -17.57856309 16.82681805 C-20.95813537 16.81138191 -24.33768856 16.80306592 -27.71728516 16.79467773 C-30.1313443 16.78510401 -32.54540174 16.77509424 -34.9594574 16.76467896 C-40.16778475 16.74319415 -45.37611355 16.72476052 -50.58446121 16.70907402 C-58.11491363 16.68638857 -65.64533779 16.65824392 -73.17576627 16.62875474 C-85.39255568 16.58106256 -97.60935663 16.53780279 -109.82617188 16.49731445 C-121.69564716 16.45796779 -133.56511218 16.41654357 -145.43457031 16.37231445 C-146.53150302 16.36822804 -146.53150302 16.36822804 -147.65059598 16.36405908 C-151.31915229 16.35037974 -154.98770846 16.33665944 -158.65626454 16.32291877 C-189.10415514 16.20892846 -219.55206741 16.10219835 -250 16 C-250 15.01 -250 14.02 -250 13 C-248.75225202 12.99761165 -247.50450403 12.99522329 -246.2189455 12.99276257 C-216.60758544 12.93541699 -186.99630676 12.86269665 -157.38503497 12.77101372 C-153.74130946 12.7597454 -150.09758357 12.74860697 -146.45385742 12.73754883 C-145.72844958 12.73534514 -145.00304175 12.73314146 -144.25565185 12.730871 C-132.50612901 12.6954875 -120.75660623 12.67062932 -109.00704984 12.64965298 C-96.95314073 12.62789929 -84.89930083 12.59485302 -72.84545058 12.55129844 C-66.07404481 12.52715575 -59.30270799 12.50825364 -52.53125954 12.50238609 C-46.16111308 12.49635507 -39.79116304 12.47642699 -33.42108917 12.44572449 C-31.08015746 12.43691243 -28.73920012 12.43322819 -26.39825249 12.43499184 C-23.20743684 12.43663712 -20.0172253 12.42000855 -16.82649231 12.39872742 C-15.43008797 12.40599878 -15.43008797 12.40599878 -14.00547343 12.41341704 C-9.21597768 12.36053172 -5.84588331 12.19833829 -2 9 C-0.98325288 6.76162201 -0.98325288 6.76162201 -0.6875 4.3125 C-0.47673828 3.10013672 -0.47673828 3.10013672 -0.26171875 1.86328125 C-0.13216797 0.94095703 -0.13216797 0.94095703 0 0 Z " fill="#F8BEE4" transform="translate(250,285)"/>
<path d="M0 0 C3.61512665 2.25945415 4.65372877 4.73319671 6.5 8.5625 C6.5 9.2225 6.5 9.8825 6.5 10.5625 C7.551875 10.335625 8.60375 10.10875 9.6875 9.875 C13.90867437 9.5290021 15.2460799 9.97850462 18.5 12.5625 C19.962958 15.488416 19.94523109 17.31867347 19.5 20.5625 C12.52427941 28.25367911 2.30990778 29.15159956 -7.5 30.5625 C-10.05336955 26.02663621 -10.17724235 21.6740804 -10.5 16.5625 C-10.56574219 15.75683594 -10.63148438 14.95117188 -10.69921875 14.12109375 C-10.96224802 8.76073859 -10.17466942 5.74754018 -6.5 1.5625 C-4.0001201 -0.37289089 -3.11692253 -0.54546144 0 0 Z " fill="#F8BEE4" transform="translate(936.5,53.4375)"/>
<path d="M0 0 C12.38077633 -0.11522956 24.6497088 0.10412395 37 1 C37 1.33 37 1.66 37 2 C32.05 2.33 27.1 2.66 22 3 C21.67 11.58 21.34 20.16 21 29 C14.25011975 24.50007983 14.25011975 24.50007983 11.67578125 21.03125 C10.84530273 19.92716797 10.84530273 19.92716797 9.99804688 18.80078125 C9.44181641 18.04152344 8.88558594 17.28226562 8.3125 16.5 C7.74466797 15.74074219 7.17683594 14.98148437 6.59179688 14.19921875 C5.53650037 12.78638334 4.48499068 11.37070481 3.4387207 9.95117188 C2.00339642 7.94841123 2.00339642 7.94841123 0.25463867 6.00195312 C-1 4 -1 4 -0.6875 1.75 C-0.460625 1.1725 -0.23375 0.595 0 0 Z " fill="#FCD299" transform="translate(1127,345)"/>
<path d="M0 0 C12.38077633 -0.11522956 24.6497088 0.10412395 37 1 C37 1.33 37 1.66 37 2 C32.05 2.33 27.1 2.66 22 3 C21.67 11.58 21.34 20.16 21 29 C17.34547637 27.17273819 16.41777156 26.63667226 14.1953125 23.5859375 C13.69386719 22.90660156 13.19242188 22.22726563 12.67578125 21.52734375 C12.16402344 20.81707031 11.65226562 20.10679688 11.125 19.375 C10.36896484 18.34439453 10.36896484 18.34439453 9.59765625 17.29296875 C8.57933661 15.90482459 7.56662582 14.5125484 6.55957031 13.11621094 C5.48305692 11.65546922 4.37597909 10.21693536 3.24511719 8.79785156 C2.68727539 8.09370117 2.12943359 7.38955078 1.5546875 6.6640625 C1.04147949 6.03193848 0.52827148 5.39981445 -0.00048828 4.74853516 C-0.33032715 4.17151855 -0.66016602 3.59450195 -1 3 C-0.67 2.01 -0.34 1.02 0 0 Z " fill="#FCD299" transform="translate(93,101)"/>
<path d="M0 0 C3.31248187 -0.02888146 6.62493167 -0.04675799 9.9375 -0.0625 C10.88302734 -0.07087891 11.82855469 -0.07925781 12.80273438 -0.08789062 C14.15141602 -0.09272461 14.15141602 -0.09272461 15.52734375 -0.09765625 C16.77632446 -0.10551147 16.77632446 -0.10551147 18.05053711 -0.11352539 C20 0 20 0 21 1 C21.08767112 3.07262076 21.10695873 5.14820294 21.09765625 7.22265625 C21.09443359 8.48271484 21.09121094 9.74277344 21.08789062 11.04101562 C21.07953403 12.38151109 21.07106907 13.72200588 21.0625 15.0625 C21.0574866 16.40689942 21.05292342 17.7513006 21.04882812 19.09570312 C21.03699488 22.39717941 21.02050971 25.69856803 21 29 C17.75515031 27.61735855 16.04666622 26.14490685 13.94140625 23.33203125 C13.11479492 22.23858398 13.11479492 22.23858398 12.27148438 21.12304688 C11.70751953 20.36056641 11.14355469 19.59808594 10.5625 18.8125 C10.00240234 18.06935547 9.44230469 17.32621094 8.86523438 16.56054688 C7.7595629 15.08846852 6.66124881 13.61083184 5.57080078 12.12744141 C4.54419198 10.73703588 3.50141708 9.35838484 2.44091797 7.99365234 C1.21650507 6.38520942 0.0972806 4.69771931 -1 3 C-0.67 2.01 -0.34 1.02 0 0 Z " fill="#FCD299" transform="translate(406,647)"/>
<path d="M0 0 C3.22265625 -0.328125 3.22265625 -0.328125 7.0625 -0.25 C8.33222656 -0.23453125 9.60195313 -0.2190625 10.91015625 -0.203125 C14 0 14 0 15 1 C15.08685603 2.56172745 15.10702219 4.12729344 15.09765625 5.69140625 C15.09443359 6.63564453 15.09121094 7.57988281 15.08789062 8.55273438 C15.07951172 9.54595703 15.07113281 10.53917969 15.0625 11.5625 C15.05798828 12.55958984 15.05347656 13.55667969 15.04882812 14.58398438 C15.03700007 17.05604849 15.02051849 19.52799518 15 22 C9.69548391 19.5101251 7.0119794 15.43768701 3.6875 10.8125 C2.86282227 9.68811523 2.86282227 9.68811523 2.02148438 8.54101562 C0.6727897 6.6997542 -0.66727148 4.85283322 -2 3 C-1.34 2.01 -0.68 1.02 0 0 Z " fill="#FCD299" transform="translate(810,496)"/>
<path d="M0 0 C2.31243792 -0.02685412 4.6249627 -0.04632841 6.9375 -0.0625 C8.22527344 -0.07410156 9.51304687 -0.08570312 10.83984375 -0.09765625 C14 0 14 0 15 1 C15.15686249 2.55948542 15.25076639 4.12542668 15.31640625 5.69140625 C15.35830078 6.63564453 15.40019531 7.57988281 15.44335938 8.55273438 C15.48267578 9.54595703 15.52199219 10.53917969 15.5625 11.5625 C15.60568359 12.55958984 15.64886719 13.55667969 15.69335938 14.58398438 C15.79980298 17.0558415 15.90181928 19.5278031 16 22 C15.34 22 14.68 22 14 22 C14 21.34 14 20.68 14 20 C13.39841064 19.73429199 12.79682129 19.46858398 12.17700195 19.19482422 C8.65868662 17.26383451 6.63118845 14.24554884 4.1875 11.125 C3.4150293 10.18720703 3.4150293 10.18720703 2.62695312 9.23046875 C2.14548828 8.62074219 1.66402344 8.01101562 1.16796875 7.3828125 C0.72735107 6.82996582 0.2867334 6.27711914 -0.16723633 5.70751953 C-1 4 -1 4 -0.63549805 1.78857422 C-0.42578369 1.19834473 -0.21606934 0.60811523 0 0 Z " fill="#FCD299" transform="translate(642,78)"/>
<path d="M0 0 C1.18851563 0.00902344 2.37703125 0.01804687 3.6015625 0.02734375 C4.51679688 0.03894531 5.43203125 0.05054688 6.375 0.0625 C7.54926264 2.41102528 7.49008173 3.80024065 7.47265625 6.4140625 C7.46943359 7.26484375 7.46621094 8.115625 7.46289062 8.9921875 C7.45451172 9.88164062 7.44613281 10.77109375 7.4375 11.6875 C7.43298828 12.5846875 7.42847656 13.481875 7.42382812 14.40625 C7.41202591 16.62506648 7.39556155 18.84375018 7.375 21.0625 C2.26316184 18.07934518 -0.68353063 14.79697929 -4 9.9375 C-4.44988281 9.30457031 -4.89976562 8.67164063 -5.36328125 8.01953125 C-8.625 3.350019 -8.625 3.350019 -8.625 1.0625 C-5.74084117 -0.37957941 -3.20778472 -0.03144887 0 0 Z " fill="#FCD299" transform="translate(158.625,366.9375)"/>
</svg>
